<svg version="1.1" id="Layer_1" xmlns="http://www.w3.org/2000/svg" xmlns:xlink="http://www.w3.org/1999/xlink" x="0px" y="0px"
	 width="100%" viewBox="0 0 500 500" enable-background="new 0 0 500 500" xml:space="preserve">
<path fill="#F0E5AF" opacity="1.000000" stroke="none" 
	d="
M1.222607,254.310638 
	C1.000000,245.312439 1.000000,236.624863 1.000000,227.468658 
	C2.016500,219.948990 1.713384,212.817764 2.360795,205.731384 
	C3.935589,188.494156 8.474609,172.008759 14.542698,155.921432 
	C27.690296,121.065323 47.715855,90.665154 74.877678,65.165520 
	C109.911713,32.275429 151.061584,11.299036 198.513824,2.995242 
	C205.406433,1.789087 212.414108,1.920674 219.684784,1.223552 
	C231.354233,1.000000 242.708450,1.000000 254.531342,1.000000 
	C261.725586,1.949168 268.526367,1.610907 275.277557,2.220627 
	C294.205261,3.930047 312.216644,9.272667 329.729126,16.276722 
	C368.723999,31.872597 401.396851,56.191006 428.306335,88.906570 
	C431.446106,94.711823 436.086487,98.910133 439.525940,104.004219 
	C463.509430,139.525620 477.766449,178.483963 480.931549,221.346390 
	C485.646606,285.198456 468.243561,342.465576 428.016388,392.138641 
	C387.191498,442.549744 334.037964,471.952576 269.547424,479.913269 
	C210.483704,487.204071 156.146500,473.613464 106.417793,441.139862 
	C101.262787,437.773590 96.773476,433.515472 91.337944,429.879639 
	C90.753075,429.601013 90.514771,429.500244 89.922745,429.241882 
	C89.341499,428.963654 89.113953,428.842987 88.239075,428.306213 
	C87.382164,427.742737 87.172585,427.595367 86.655067,427.218018 
	C51.542805,396.127228 25.385733,359.459412 10.928583,314.896759 
	C4.569813,295.296509 0.908879,275.294983 1.222607,254.310638 
z"/>
<path fill="#FFFFFF" opacity="1.000000" stroke="none" 
	d="
M427.373840,90.202118 
	C389.012970,44.591000 341.416199,15.410297 282.803284,4.817921 
	C273.801025,3.191059 264.746033,2.243807 255.326263,1.244362 
	C335.594299,1.000000 416.188660,1.032455 496.782715,0.895587 
	C500.466583,0.889331 501.097046,1.750861 501.091705,5.275398 
	C500.972076,84.204353 501.000000,163.133545 501.000000,242.531342 
	C497.536041,242.492310 498.416046,239.558411 498.205688,237.533188 
	C495.831177,214.671524 490.229370,192.629852 481.642303,171.332932 
	C470.866577,144.607895 455.196442,120.976730 436.029510,99.594109 
	C433.273529,96.519531 431.282135,92.733643 427.373840,90.202118 
z"/>
<path fill="#FFFFFF" opacity="1.000000" stroke="none" 
	d="
M1.000000,254.468658 
	C1.981805,261.684052 2.871587,269.381195 3.961889,277.049805 
	C7.959611,305.167725 17.376242,331.430695 30.838806,356.378113 
	C45.252491,383.088135 65.375908,405.076569 87.514793,425.845215 
	C88.102394,426.195496 88.386818,426.416748 88.839737,426.856262 
	C89.023445,427.054962 89.018867,426.980438 88.981537,426.980774 
	C89.195236,427.206848 89.439034,427.440125 89.844528,427.869537 
	C90.013527,428.058014 90.008759,427.991272 89.975502,427.994843 
	C109.698570,444.852539 129.531662,461.514801 153.036194,473.237152 
	C177.552505,485.463989 203.200470,493.657684 230.347992,497.301025 
	C234.331055,497.835602 238.747330,497.077942 242.057312,500.620239 
	C163.070862,501.000000 84.141670,500.966431 5.212786,501.105408 
	C1.516440,501.111908 0.904206,500.232300 0.909331,496.720093 
	C1.026924,416.125946 1.000000,335.531616 1.000000,254.468658 
z"/>
<path fill="#56A5A7" opacity="1.000000" stroke="none" 
	d="
M242.468658,501.000000 
	C236.397598,498.822784 230.385239,499.119293 224.579666,498.181213 
	C175.192398,490.200836 132.331223,469.096832 96.050735,434.647644 
	C94.006554,432.706604 92.060661,430.662018 90.005630,428.332031 
	C92.082138,427.699738 93.219246,429.399170 94.606781,430.460571 
	C129.097061,456.843384 167.795441,473.076813 210.960190,478.122833 
	C278.887085,486.063629 339.936951,468.764954 392.695099,425.393738 
	C441.727753,385.085144 470.518677,332.810577 478.143829,269.553101 
	C485.712036,206.767883 470.334900,149.751160 433.412903,98.490173 
	C431.468872,95.791107 429.322235,93.237923 427.168396,90.295700 
	C429.060944,89.651711 430.069366,91.140549 431.199310,92.302284 
	C469.261230,131.435425 492.381744,177.828018 499.103546,232.176956 
	C499.530731,235.630798 499.901367,239.091614 500.649170,242.774597 
	C501.000000,254.354233 501.000000,265.708466 501.000000,277.531342 
	C500.058777,284.395264 500.388977,290.870117 499.775299,297.288727 
	C498.192627,313.841949 493.521301,329.643799 487.823212,345.137939 
	C474.468231,381.452515 453.448578,412.766266 425.000244,438.934540 
	C390.394318,470.766815 349.751617,490.755951 303.493835,499.087555 
	C295.014709,500.614777 286.285370,500.606995 277.315887,500.776306 
	C265.645782,501.000000 254.291550,501.000000 242.468658,501.000000 
z"/>
<path fill="#FFFFFF" opacity="1.000000" stroke="none" 
	d="
M219.531342,1.000000 
	C212.772888,3.656122 205.047699,3.442381 197.589157,4.820949 
	C163.331024,11.152890 131.961197,24.248165 103.433052,44.150951 
	C79.017426,61.184616 58.413044,82.069649 41.858170,106.800171 
	C20.392962,138.866013 7.065601,173.988007 2.779297,212.484009 
	C2.264814,217.104660 2.479961,221.784256 1.244999,226.673859 
	C1.000000,153.072800 1.035172,79.145523 0.895677,5.218582 
	C0.888735,1.539393 1.744566,0.901511 5.273413,0.907621 
	C76.536346,1.030995 147.799545,1.000000 219.531342,1.000000 
z"/>
<path fill="#FFFFFF" opacity="1.000000" stroke="none" 
	d="
M277.468658,501.000000 
	C283.851868,500.071136 290.720947,499.253815 297.552979,498.196655 
	C394.835846,483.143402 472.443542,411.267639 494.824066,315.519196 
	C497.668671,303.349487 499.482086,291.018921 500.692200,278.277100 
	C501.000000,350.928497 500.963928,423.857056 501.105164,496.785278 
	C501.112305,500.475281 500.240845,501.097260 496.722656,501.091400 
	C423.794373,500.970062 350.865814,501.000000 277.468658,501.000000 
z"/>
<path fill="#ED5772" opacity="1.000000" stroke="none" 
	d="
M372.691772,208.409409 
	C374.870178,206.944382 376.637726,205.624908 378.614288,204.816406 
	C383.123413,202.971909 387.484436,205.666519 388.029327,210.488876 
	C388.178162,211.806244 388.133606,213.148422 388.133728,214.479202 
	C388.138092,263.745361 388.136078,313.011536 388.139862,362.277710 
	C388.140137,365.782196 388.595459,369.580475 384.680695,371.439819 
	C380.972260,373.201233 377.553436,371.928711 374.205658,369.343201 
	C371.724548,363.965118 373.812134,358.406647 372.355835,352.751160 
	C372.002411,349.312317 371.923065,346.328949 371.927765,343.333862 
	C371.989136,304.434509 371.844910,265.535004 372.010468,226.635712 
	C372.012604,226.130859 371.897919,225.647003 371.677856,224.685150 
	C370.933594,219.023590 369.930939,213.812164 372.691772,208.409409 
z"/>
<path fill="#C570B5" opacity="1.000000" stroke="none" 
	d="
M316.183105,335.607910 
	C315.947296,340.513489 315.806915,344.998657 315.790405,349.484283 
	C315.750671,360.278595 313.850952,362.131866 302.438171,361.858795 
	C299.492981,359.533539 300.100983,356.486298 299.987152,353.635284 
	C299.916260,351.860504 299.902008,350.085510 299.531525,347.855774 
	C299.152557,346.423370 298.990112,345.440704 298.989685,344.433655 
	C298.972656,306.455902 298.760284,268.477936 299.158508,230.021637 
	C299.030609,226.417282 298.772217,223.284393 299.092285,220.162125 
	C299.336975,217.775284 299.888855,215.490540 303.482605,215.303543 
	C313.680939,214.649017 315.769226,216.580978 315.779358,226.102341 
	C315.784119,230.555206 315.790588,235.008057 315.837708,239.956421 
	C317.939789,242.904968 316.804657,245.813828 316.940338,248.512299 
	C317.080658,251.302963 317.237183,254.081329 317.773621,257.288666 
	C318.146179,277.939026 318.174805,298.145599 317.805603,318.812592 
	C316.328827,322.739471 317.257324,326.364166 317.012939,329.909027 
	C316.890472,331.685608 317.169281,333.505035 316.183105,335.607910 
z"/>
<path fill="#1CC0E9" opacity="1.000000" stroke="none" 
	d="
M126.312149,361.461853 
	C116.169838,362.322601 114.018661,360.348358 114.017693,350.730774 
	C114.013512,308.899048 114.012672,267.067322 114.018044,225.235611 
	C114.019150,216.681458 115.785004,214.917465 124.609383,215.059921 
	C128.011536,215.725586 128.771240,217.919449 128.928574,220.543549 
	C129.094208,223.306076 128.874725,226.090698 129.482605,229.300110 
	C130.127350,231.374023 130.039642,233.049026 130.041306,234.706024 
	C130.076859,270.279907 130.071777,305.853821 130.044083,341.427704 
	C130.042801,343.086792 130.097015,344.755981 129.566086,346.840576 
	C126.993927,351.607666 129.196930,356.860229 126.312149,361.461853 
z"/>
<path fill="#5DA2EA" opacity="1.000000" stroke="none" 
	d="
M174.688751,173.054596 
	C175.508759,163.620255 179.714752,156.134903 185.496246,149.054886 
	C190.167130,147.846237 190.257034,151.322128 190.771149,153.908508 
	C191.649826,158.328964 190.469574,162.811920 190.869537,167.684906 
	C191.579300,170.279739 191.016251,172.379074 190.423187,174.844025 
	C189.939438,176.300079 189.271027,177.329453 189.601212,178.936539 
	C190.086426,183.417953 191.288712,187.440201 191.156403,192.027283 
	C189.816238,196.197784 191.348740,199.981781 191.025970,203.772293 
	C190.746323,207.056213 191.202621,210.448105 189.016739,213.311432 
	C188.331650,214.208817 188.467255,214.847076 189.106720,215.880890 
	C191.746780,220.148972 191.580521,224.632553 189.229721,229.441467 
	C185.201630,231.601410 181.442245,231.406601 177.244110,229.834000 
	C175.052734,227.719193 175.029144,225.367401 174.986328,223.023331 
	C174.886154,217.541412 175.053162,212.059998 174.857071,206.156158 
	C173.909790,201.124405 173.552216,196.459106 172.928406,191.404602 
	C174.628693,187.179169 173.801483,183.172501 174.002487,179.253250 
	C174.102280,177.307114 173.412964,175.292542 174.688751,173.054596 
z"/>
<path fill="#AC7FDE" opacity="1.000000" stroke="none" 
	d="
M257.538452,147.330399 
	C267.707550,156.716202 271.643585,168.613083 271.333405,181.915680 
	C271.078583,192.844101 267.760040,202.836090 259.808685,211.157379 
	C255.964691,211.327438 255.880035,208.463821 255.371689,206.155518 
	C254.544586,202.399780 255.351837,198.549927 254.780518,194.398148 
	C254.223373,193.298538 254.152466,192.522873 254.426178,191.377609 
	C254.836945,190.424805 255.119629,189.812805 254.871338,188.748734 
	C255.634369,181.044937 254.137878,173.842453 253.515106,166.171936 
	C254.903732,162.375107 253.663986,158.889572 254.022873,155.462204 
	C254.334198,152.489090 254.290634,149.447342 257.538452,147.330399 
z"/>
<path fill="#32B6E9" opacity="1.000000" stroke="none" 
	d="
M134.665314,215.378632 
	C132.883881,208.597778 130.365189,202.310638 131.660156,195.293335 
	C133.266785,186.587219 137.373627,179.613892 145.355804,174.856140 
	C148.903687,174.798920 149.154495,177.399002 149.644211,179.548370 
	C150.383865,182.794601 150.027527,186.088791 149.469086,189.790100 
	C147.551712,196.844193 147.604126,203.373978 150.341248,210.228790 
	C149.727142,216.731277 150.991379,222.970551 148.421692,229.256226 
	C143.949860,231.736374 139.731445,231.460083 135.062714,229.697464 
	C132.156662,224.909561 132.252853,220.360001 134.665314,215.378632 
z"/>
<path fill="#A581E9" opacity="1.000000" stroke="none" 
	d="
M254.598251,193.084717 
	C257.432556,194.260956 256.908875,196.576065 257.006683,198.688858 
	C257.195648,202.771164 256.183075,207.038574 259.165588,211.015488 
	C256.318176,218.262589 262.749847,213.558365 264.501648,215.100281 
	C259.812927,218.611877 261.933380,224.908463 258.996033,229.638550 
	C253.994308,231.642044 249.316589,231.484131 244.223572,229.822784 
	C240.897476,225.973633 242.263474,221.707504 241.997574,217.713867 
	C241.856659,215.597107 241.881378,213.455032 242.221680,210.912384 
	C242.511978,207.909393 243.383026,205.569809 245.331772,203.847778 
	C248.849640,200.739197 250.578201,196.169403 254.598251,193.084717 
z"/>
<path fill="#A382E9" opacity="1.000000" stroke="none" 
	d="
M257.801147,146.870285 
	C255.391724,151.147263 256.059601,155.611267 256.005005,159.961914 
	C255.980453,161.918625 256.119629,163.894638 254.922760,166.107727 
	C253.459152,166.524307 252.500092,165.840698 251.824371,164.880508 
	C248.660583,160.384827 244.797821,156.545502 240.768372,152.849197 
	C240.030380,152.172211 239.560852,151.279510 239.374969,149.884979 
	C240.720078,145.337555 239.563446,140.923508 240.809814,136.401520 
	C247.975845,137.327332 252.766144,142.019318 257.801147,146.870285 
z"/>
<path fill="#6B9DEA" opacity="1.000000" stroke="none" 
	d="
M190.169006,169.148483 
	C188.078674,164.462555 189.382324,159.767990 189.022369,155.169510 
	C188.840988,152.852417 189.149475,150.412964 186.173767,149.003143 
	C189.160553,143.957550 193.901794,140.681091 199.429779,137.890060 
	C202.913452,137.789444 203.281921,140.254745 203.704163,142.420502 
	C204.263489,145.289337 204.147659,148.202820 203.403564,151.488770 
	C199.371246,157.932953 194.930420,163.614716 190.169006,169.148483 
z"/>
<path fill="#D5669A" opacity="1.000000" stroke="none" 
	d="
M328.640259,234.035782 
	C333.649933,229.969406 339.111359,227.339798 344.683899,224.250977 
	C348.907288,228.046005 348.047119,232.819931 347.445404,237.961487 
	C343.232635,244.859436 337.254089,248.298355 329.379669,248.748734 
	C327.370880,243.832184 327.748016,239.149933 328.640259,234.035782 
z"/>
<path fill="#DD618C" opacity="1.000000" stroke="none" 
	d="
M346.460022,239.538788 
	C346.002289,234.545731 346.162842,229.716797 345.014282,224.572205 
	C349.039795,221.787125 353.065857,219.415588 357.431610,216.973511 
	C358.371307,216.573532 359.060577,216.517899 359.898468,216.012497 
	C360.107300,215.747452 360.336029,215.372818 360.543152,215.300232 
	C364.625946,218.973969 362.510803,223.729446 362.955017,228.490906 
	C363.098633,230.529053 362.494751,231.970032 361.217987,232.780533 
	C356.700592,235.648148 352.583832,239.403183 346.460022,239.538788 
z"/>
<path fill="#CC6BA8" opacity="1.000000" stroke="none" 
	d="
M328.452881,233.719498 
	C331.059998,238.222870 329.567688,243.143082 330.001465,248.352448 
	C327.065399,254.034805 322.046234,255.977676 316.297363,257.089294 
	C314.633392,251.676056 314.451141,246.440704 315.828094,240.819260 
	C319.955719,238.241135 324.032288,236.030334 328.452881,233.719498 
z"/>
<path fill="#50A9E9" opacity="1.000000" stroke="none" 
	d="
M174.523315,172.796875 
	C176.033127,178.753006 177.542404,184.835236 173.949768,190.966339 
	C168.889648,189.743149 164.809494,187.008057 160.144592,184.678635 
	C158.678085,179.932083 158.284332,175.563309 160.638550,170.974518 
	C165.694427,169.531219 169.729843,172.370712 174.523315,172.796875 
z"/>
<path fill="#E55B7E" opacity="1.000000" stroke="none" 
	d="
M373.683197,352.430359 
	C375.349640,357.903625 375.590759,363.061920 374.041260,368.658936 
	C369.544708,367.305237 365.612610,364.648560 361.293640,361.979523 
	C358.933899,356.935913 359.710083,352.158112 361.561310,347.083069 
	C367.077606,345.584473 370.423767,348.502747 373.683197,352.430359 
z"/>
<path fill="#3FB0E9" opacity="1.000000" stroke="none" 
	d="
M160.600708,170.559464 
	C160.986389,175.009171 160.988892,179.333862 160.989273,184.093231 
	C157.471039,187.864014 152.881577,189.218857 148.311371,191.017975 
	C147.588638,185.641876 149.199982,180.247116 145.999878,175.072052 
	C149.951645,171.404144 155.017517,170.696289 160.600708,170.559464 
z"/>
<path fill="#699CEB" opacity="1.000000" stroke="none" 
	d="
M202.341217,361.428955 
	C197.291519,361.821594 192.600800,361.868896 187.447891,361.846222 
	C183.690338,357.572327 185.038162,352.862610 185.799744,347.859131 
	C190.726791,345.025635 195.531097,345.776581 200.789429,346.960083 
	C205.242279,351.446716 204.606888,356.198029 202.341217,361.428955 
z"/>
<path fill="#AE7BDA" opacity="1.000000" stroke="none" 
	d="
M276.352509,361.437195 
	C271.298462,361.832336 266.607208,361.872589 261.453033,361.850830 
	C257.727539,357.540283 258.703857,352.989410 260.342651,348.006348 
	C265.457733,344.978699 270.413727,345.626770 275.823303,347.221191 
	C278.871368,351.948120 278.697174,356.484009 276.352509,361.437195 
z"/>
<path fill="#9489EB" opacity="1.000000" stroke="none" 
	d="
M240.691711,135.917480 
	C242.290787,140.693100 243.190659,145.290405 240.069092,149.936005 
	C234.720108,151.495026 230.668716,149.671021 226.871735,145.965607 
	C225.807892,141.264771 225.170868,136.991882 227.660156,132.531235 
	C232.370667,132.505035 236.654877,133.136200 240.691711,135.917480 
z"/>
<path fill="#7995EB" opacity="1.000000" stroke="none" 
	d="
M202.275421,152.950150 
	C201.419678,147.911133 203.441498,142.857483 200.086548,138.102402 
	C203.103500,135.028229 207.247299,134.205658 211.669830,133.136246 
	C215.228149,133.185883 216.650223,134.933807 216.820389,137.961868 
	C216.947571,140.224762 217.073868,142.485138 216.880371,145.166565 
	C213.460159,150.676544 207.813019,151.569046 202.275421,152.950150 
z"/>
<path fill="#DE6089" opacity="1.000000" stroke="none" 
	d="
M363.108948,346.585205 
	C360.714905,351.403503 363.070190,356.497009 361.036072,361.365479 
	C356.783752,359.374146 352.548462,356.983582 348.100525,354.328308 
	C348.079285,349.424561 347.636444,344.744263 348.987457,339.809753 
	C355.463562,338.338928 359.337433,342.220154 363.108948,346.585205 
z"/>
<path fill="#CB6BA9" opacity="1.000000" stroke="none" 
	d="
M316.332123,336.179504 
	C314.076385,330.931824 314.937744,325.748993 315.843292,320.266968 
	C321.749115,319.799072 325.940338,322.233124 328.922913,327.387024 
	C328.599792,332.372559 330.034119,337.111969 327.330780,341.764252 
	C323.191193,340.765472 320.044983,338.307007 316.332123,336.179504 
z"/>
<path fill="#E76A82" opacity="1.000000" stroke="none" 
	d="
M362.423157,230.321716 
	C359.994507,225.701141 361.537872,220.901459 360.808014,215.760086 
	C364.105133,212.051773 368.395660,210.399292 372.657410,208.080719 
	C373.004547,213.050964 373.001373,218.070114 373.001343,223.557709 
	C371.380890,229.004074 366.735962,229.177765 362.423157,230.321716 
z"/>
<path fill="#BC72C2" opacity="1.000000" stroke="none" 
	d="
M303.476562,215.090332 
	C300.647858,216.304108 300.933167,219.041351 300.989105,221.713791 
	C301.034332,223.874069 300.982819,226.036392 300.960236,228.669220 
	C296.717621,232.182983 292.201294,231.235229 287.254211,229.827347 
	C284.184570,226.242004 284.872437,222.435135 285.358490,218.716812 
	C285.616302,216.744644 286.796295,215.430710 289.470795,215.309296 
	C294.295258,215.114044 298.657776,215.075012 303.476562,215.090332 
z"/>
<path fill="#D2679E" opacity="1.000000" stroke="none" 
	d="
M327.214661,342.290039 
	C327.354553,337.244263 326.233398,332.374023 327.872986,327.240356 
	C333.594360,326.827576 337.877594,329.093842 340.757538,334.354553 
	C340.738983,339.404938 342.015106,344.140717 339.310913,348.853210 
	C335.121826,346.931702 331.280579,344.735840 327.214661,342.290039 
z"/>
<path fill="#B676CC" opacity="1.000000" stroke="none" 
	d="
M276.451874,361.854980 
	C275.994141,357.512329 275.998596,353.232574 276.003998,348.490723 
	C280.243652,344.645416 284.841278,345.773315 289.863556,347.249573 
	C292.872284,351.977600 292.692932,356.503601 290.354553,361.441833 
	C285.633911,361.837189 281.273956,361.877533 276.451874,361.854980 
z"/>
<path fill="#B477CF" opacity="1.000000" stroke="none" 
	d="
M289.477814,215.096954 
	C286.694244,216.272797 286.915741,218.948715 286.988129,221.598801 
	C287.046234,223.726471 286.998718,225.857010 286.997192,228.442749 
	C282.857422,232.408615 278.277924,231.151276 273.297668,229.857178 
	C270.167511,226.281845 270.872131,222.459518 271.349274,218.731461 
	C271.685181,216.107224 273.550964,215.274445 276.465759,215.306076 
	C280.960815,215.114578 284.991852,215.077682 289.477814,215.096954 
z"/>
<path fill="#A67FE7" opacity="1.000000" stroke="none" 
	d="
M260.679443,347.644592 
	C261.003540,352.313751 260.999420,356.603973 260.992706,361.341492 
	C256.632324,361.830200 252.274551,361.871613 247.455704,361.850708 
	C243.789597,357.138214 244.264801,352.488861 247.381226,347.514465 
	C251.970688,345.496216 256.167664,345.283051 260.679443,347.644592 
z"/>
<path fill="#AC7BDD" opacity="1.000000" stroke="none" 
	d="
M276.477936,215.095459 
	C273.879486,216.009521 272.467102,217.805084 272.940094,221.156006 
	C273.255188,223.388016 272.997711,225.700806 272.995056,228.434265 
	C268.726593,232.311752 264.209473,231.505234 259.312866,229.283813 
	C258.995728,226.594025 259.233093,224.272537 258.949188,222.016663 
	C258.418945,217.803238 259.868378,215.521088 264.616455,215.378540 
	C268.621307,215.115311 272.323700,215.077377 276.477936,215.095459 
z"/>
<path fill="#7895EB" opacity="1.000000" stroke="none" 
	d="
M202.442429,361.843994 
	C201.700272,357.443024 202.696442,353.048126 201.167328,348.392578 
	C204.643143,344.712006 208.902985,346.125549 213.484436,346.598328 
	C218.778915,350.530670 219.435181,355.789825 215.370682,361.478943 
	C210.962509,361.825775 206.932571,361.869720 202.442429,361.843994 
z"/>
<path fill="#59A3EA" opacity="1.000000" stroke="none" 
	d="
M185.686020,347.644928 
	C187.904526,352.182129 186.634003,356.596985 186.988983,361.331299 
	C182.626404,361.822601 178.267090,361.868958 173.447449,361.843658 
	C170.218124,357.218445 172.217377,352.558136 173.006012,347.597076 
	C177.349579,345.421661 181.361984,345.342499 185.686020,347.644928 
z"/>
<path fill="#868FEB" opacity="1.000000" stroke="none" 
	d="
M216.762573,146.535294 
	C213.946823,143.934692 215.249939,140.975220 215.052063,138.325012 
	C214.902023,136.315338 215.084885,134.339371 212.335022,133.384094 
	C216.957779,131.362305 222.041168,132.029434 227.534058,132.122284 
	C227.991562,136.522690 227.991165,140.842316 227.985535,145.632172 
	C224.538803,148.940353 220.853897,148.345673 216.762573,146.535294 
z"/>
<path fill="#D86393" opacity="1.000000" stroke="none" 
	d="
M339.164307,349.395142 
	C339.357056,344.269104 338.304291,339.346069 339.914001,334.229004 
	C344.423004,333.421631 347.483795,335.334137 349.966095,338.918640 
	C349.345825,344.059082 351.496399,349.100555 348.229858,353.849854 
	C345.047119,352.596649 342.206299,351.129669 339.164307,349.395142 
z"/>
<path fill="#BD72C0" opacity="1.000000" stroke="none" 
	d="
M290.451721,361.857910 
	C289.996460,357.515350 289.999115,353.233856 290.002380,348.490234 
	C293.140045,345.194885 296.541199,345.565430 300.399597,347.541443 
	C303.237427,352.026123 301.471436,356.576141 301.998047,361.354553 
	C298.301453,361.841248 294.605560,361.880157 290.451721,361.857910 
z"/>
<path fill="#4BA8EB" opacity="1.000000" stroke="none" 
	d="
M172.660904,347.629974 
	C175.366104,352.325867 173.060318,356.636230 172.990402,361.359894 
	C169.623810,361.818756 166.260513,361.865509 162.443726,361.840668 
	C158.724991,357.533997 159.713501,352.992889 161.336121,348.019257 
	C165.129990,345.385803 168.694519,345.401245 172.660904,347.629974 
z"/>
<path fill="#868FEB" opacity="1.000000" stroke="none" 
	d="
M215.449524,361.849487 
	C215.921448,357.346375 217.441452,352.888489 214.245331,348.306335 
	C216.668640,345.202240 219.986740,346.047150 223.691010,346.503296 
	C229.390625,349.834717 230.463959,354.233765 227.345245,361.439545 
	C223.297119,361.828094 219.601852,361.872650 215.449524,361.849487 
z"/>
<path fill="#9C85ED" opacity="1.000000" stroke="none" 
	d="
M247.686432,347.647888 
	C246.090454,352.187592 247.380432,356.608704 246.996002,361.343994 
	C243.961456,361.828766 240.928284,361.869232 237.444672,361.846375 
	C233.761337,357.666077 235.609772,352.384430 234.131836,347.599792 
	C238.755737,345.377167 243.065948,345.327271 247.686432,347.647888 
z"/>
<path fill="#35B3EB" opacity="1.000000" stroke="none" 
	d="
M152.349701,361.418152 
	C148.953094,361.816681 145.921906,361.865784 142.441284,361.842407 
	C138.726791,357.541412 139.716705,353.004181 141.328796,348.033295 
	C144.760895,345.445618 148.051086,345.620239 151.845001,347.237946 
	C154.878723,351.960175 154.687805,356.485107 152.349701,361.418152 
z"/>
<path fill="#40AFEA" opacity="1.000000" stroke="none" 
	d="
M152.434357,361.841248 
	C151.989517,357.492218 151.994751,353.216888 152.000107,348.479248 
	C154.907120,345.266144 158.066162,345.614960 161.665207,347.636963 
	C161.997955,352.301453 161.995987,356.586884 161.992126,361.320679 
	C158.954956,361.817688 155.919678,361.866302 152.434357,361.841248 
z"/>
<path fill="#9189EC" opacity="1.000000" stroke="none" 
	d="
M233.665543,347.635498 
	C237.435654,349.287262 237.064011,352.189819 237.007507,354.980042 
	C236.967636,356.949799 236.997971,358.920990 236.995605,361.337311 
	C233.960907,361.826904 230.927551,361.870697 227.443298,361.848999 
	C226.994156,358.797394 226.909775,355.807861 227.027542,352.826355 
	C227.108231,350.783936 226.606339,349.246826 224.270599,348.267944 
	C226.910812,345.270355 230.068512,345.614502 233.665543,347.635498 
z"/>
<path fill="#2CB9E9" opacity="1.000000" stroke="none" 
	d="
M141.666718,347.635620 
	C141.998489,352.298004 141.996689,356.585114 141.993393,361.321045 
	C138.958755,361.820190 135.925629,361.870422 132.443146,361.848083 
	C128.795471,357.164368 129.294250,352.540558 132.321594,347.576813 
	C135.578613,345.749146 138.457596,345.581909 141.666718,347.635620 
z"/>
<path fill="#24BBEA" opacity="1.000000" stroke="none" 
	d="
M134.544235,214.977081 
	C134.996750,219.312912 134.995956,223.633209 134.993347,228.409790 
	C133.273880,230.972778 131.211029,230.866119 128.659607,229.467911 
	C126.029610,226.961685 127.327469,224.153870 127.013145,221.635178 
	C126.757629,219.587692 127.667435,217.269958 125.290627,215.406738 
	C128.053162,215.072418 131.072037,215.016983 134.544235,214.977081 
z"/>
<path fill="#24BBEA" opacity="1.000000" stroke="none" 
	d="
M132.704895,347.696716 
	C131.092789,352.177368 132.381256,356.595612 131.995041,361.329376 
	C130.275482,361.823059 128.557159,361.870667 126.414574,361.845032 
	C125.994423,358.629120 125.965775,355.485962 126.016357,352.344025 
	C126.042107,350.744598 125.651932,348.936249 128.036819,347.917542 
	C129.665192,346.658478 130.999878,346.657104 132.704895,347.696716 
z"/>
<path fill="#E76A82" opacity="1.000000" stroke="none" 
	d="
M359.775085,215.805084 
	C359.558838,216.124222 359.010406,216.500992 358.116638,216.890366 
	C358.328491,216.556213 358.885651,216.209457 359.775085,215.805084 
z"/>
<path fill="#56A5A7" opacity="1.000000" stroke="none" 
	d="
M88.965546,426.752655 
	C88.694962,426.877747 88.366493,426.700500 87.920441,426.258484 
	C88.171112,426.145874 88.539375,426.298096 88.965546,426.752655 
z"/>
<path fill="#56A5A7" opacity="1.000000" stroke="none" 
	d="
M90.003380,427.754150 
	C89.696388,427.883698 89.379250,427.709351 89.003159,427.258057 
	C89.293884,427.137482 89.643562,427.293884 90.003380,427.754150 
z"/>
<path fill="#F0E3AF" opacity="1.000000" stroke="none" 
	d="
M350.313782,339.406616 
	C346.930603,337.622375 343.860016,335.947388 340.501648,334.101013 
	C336.756714,331.005035 332.572205,329.325592 328.347595,327.013489 
	C324.635498,324.024780 320.566650,322.352295 316.433136,320.115204 
	C315.365631,299.258667 315.903931,278.551208 315.912598,257.371704 
	C320.458862,254.338791 324.945251,251.780594 329.716431,249.013260 
	C335.221558,245.814301 340.441895,242.824493 345.876038,239.595398 
	C351.274139,236.470444 356.458405,233.584793 361.852417,230.444550 
	C365.550873,228.299728 369.039581,226.409515 372.766418,224.272736 
	C374.520996,225.092926 374.076782,226.711380 374.076538,228.142471 
	C374.069855,269.384430 374.036835,310.626404 373.957886,352.314819 
	C370.511505,350.887207 367.115295,349.013123 363.384399,347.059296 
	C358.908569,344.491669 354.767487,342.003784 350.313782,339.406616 
z"/>
<path fill="#EEE4B0" opacity="1.000000" stroke="none" 
	d="
M133.444519,347.923737 
	C131.734833,347.924866 130.468765,347.841217 128.824158,347.773224 
	C128.330994,346.800323 128.115952,345.811707 128.116287,344.823181 
	C128.129562,306.563873 128.162506,268.304596 128.256714,229.590179 
	C130.267517,229.094620 132.214462,229.054153 134.576462,228.939880 
	C139.019196,228.915192 143.046890,228.964325 147.532471,228.941513 
	C152.672165,225.509216 157.933624,227.345047 163.452545,227.228271 
	C168.067749,227.168839 172.291687,226.009567 176.614502,228.566437 
	C180.686737,228.914017 184.381241,228.958832 188.532150,228.939896 
	C189.930954,228.056519 190.958847,227.439636 192.722504,227.458008 
	C195.882858,226.871399 198.598450,226.829971 201.777863,227.292480 
	C206.843262,226.793228 211.455841,226.818756 216.532745,227.251572 
	C221.358932,226.845245 225.724289,226.791306 230.562820,227.245087 
	C235.143845,227.143799 239.336517,226.025848 243.621704,228.587738 
	C248.686234,228.927841 253.377121,228.964264 258.530792,228.943298 
	C263.352570,228.924286 267.711578,228.962677 272.532074,228.946075 
	C277.353241,228.929794 281.712921,228.968521 286.534424,228.953232 
	C291.339935,228.964294 295.683624,229.029358 300.486755,229.117523 
	C300.939423,268.420349 300.932587,307.700073 300.839172,347.431274 
	C297.471344,347.897675 294.190094,347.912537 290.455933,347.977753 
	C285.644867,347.993469 281.286652,347.958801 276.466736,347.976379 
	C271.314331,347.990479 266.623688,347.952271 261.470367,347.968811 
	C256.978668,347.983612 252.949661,347.943726 248.460022,347.959534 
	C243.640900,347.976349 239.282364,347.937439 234.462082,347.956299 
	C230.968048,347.973450 227.935776,347.932831 224.452423,347.950226 
	C220.967911,347.967957 217.934509,347.927643 214.450256,347.949707 
	C209.972290,347.968384 205.945160,347.924713 201.458618,347.947876 
	C196.307343,347.966003 191.615463,347.917328 186.461975,347.940247 
	C181.972488,347.961914 177.944626,347.911926 173.458618,347.937500 
	C169.635437,347.961914 166.270401,347.910797 162.452637,347.937866 
	C158.965469,347.961670 155.931030,347.907318 152.448410,347.934967 
	C148.965668,347.960022 145.931107,347.903046 142.448395,347.928497 
	C139.296234,347.953583 136.592178,347.896271 133.444519,347.923737 
z"/>
<path fill="#EFE4B0" opacity="1.000000" stroke="none" 
	d="
M216.099182,146.403992 
	C219.968170,146.171570 223.517944,146.145828 227.524033,146.111237 
	C231.657349,147.407303 235.334366,148.712219 239.363220,150.080215 
	C245.748245,154.341110 250.628235,159.595581 254.493927,166.263336 
	C256.607147,173.982681 258.094360,181.464233 255.992630,189.568085 
	C256.096497,190.203796 256.194702,190.415405 255.975708,190.774872 
	C255.421844,191.421387 255.185120,191.920059 254.965851,192.704620 
	C252.478897,198.776215 248.436691,203.413071 243.879364,208.036041 
	C243.745285,208.576981 243.701920,208.814743 243.426208,209.333054 
	C243.019730,209.785156 242.845596,209.956711 242.388855,210.365768 
	C238.706802,212.716507 235.103607,214.373993 230.869415,215.567245 
	C226.577530,217.339386 222.492737,216.998062 218.021606,216.597076 
	C212.465088,215.586182 207.730194,213.577286 202.977814,210.608429 
	C199.915710,208.719437 197.615173,206.526657 195.268173,203.842987 
	C193.013611,200.116241 189.907166,197.179428 189.910690,192.406235 
	C189.058365,187.673096 187.969543,183.332001 187.976532,178.400574 
	C187.965622,177.526871 188.024353,177.085266 188.171143,176.319458 
	C188.757370,173.919189 189.271637,171.845291 189.801865,169.374664 
	C192.783539,163.028534 196.028946,157.285797 201.734818,152.930038 
	C206.300827,150.023010 210.793793,147.756058 216.099182,146.403992 
z"/>
<path fill="#ECE4B0" opacity="1.000000" stroke="none" 
	d="
M147.700943,191.101166 
	C151.566238,187.811829 155.057968,184.620407 160.588501,184.614990 
	C165.850739,184.993454 169.991608,186.858719 173.327927,190.967529 
	C175.653946,195.072189 176.353897,199.212952 175.725952,203.993774 
	C175.315186,211.472244 170.143524,214.000916 164.133942,216.211761 
	C157.941544,217.051620 152.650848,216.485016 149.224518,210.308594 
	C145.152237,204.051239 145.021637,197.824890 147.700943,191.101166 
z"/>
<path fill="#51A7EA" opacity="1.000000" stroke="none" 
	d="
M163.643707,215.220932 
	C169.029587,213.009277 172.875580,209.795303 175.483948,204.634995 
	C178.359253,212.137314 176.380112,220.112686 176.994110,228.410522 
	C172.962875,228.921204 168.933487,228.973206 164.446045,228.945770 
	C160.903275,224.591476 161.350571,220.145081 163.643707,215.220932 
z"/>
<path fill="#6B9DEA" opacity="1.000000" stroke="none" 
	d="
M189.631256,192.382324 
	C191.892181,195.456406 193.913345,198.860214 196.042206,202.595215 
	C194.483749,208.906357 195.138580,215.031555 195.003098,221.108276 
	C194.948441,223.559998 195.269104,226.095947 193.305908,228.563034 
	C191.928833,228.932220 190.856140,228.977280 189.386017,228.949234 
	C188.059219,224.125778 191.376907,218.519043 186.123230,214.620850 
	C185.975189,214.511032 185.953369,213.900421 186.092957,213.781235 
	C191.851974,208.863861 187.824066,202.300552 188.982727,196.617844 
	C189.243027,195.341202 189.261627,194.015289 189.631256,192.382324 
z"/>
<path fill="#6B9DEA" opacity="1.000000" stroke="none" 
	d="
M188.046448,176.088928 
	C188.254532,176.513611 188.265976,177.034119 188.099152,177.762497 
	C187.196365,177.403061 187.023209,176.813812 188.046448,176.088928 
z"/>
<path fill="#A581E9" opacity="1.000000" stroke="none" 
	d="
M255.842209,190.879456 
	C255.658539,190.922714 255.823288,190.455658 255.910797,190.223907 
	C256.102631,190.197418 256.224274,190.396927 256.295837,190.613037 
	C256.309143,190.653214 256.121033,190.760086 255.842209,190.879456 
z"/>
<path fill="#40AFEA" opacity="1.000000" stroke="none" 
	d="
M163.517822,214.813980 
	C163.959503,219.197266 163.976364,223.576202 163.990601,228.410736 
	C158.963135,228.921860 153.938278,228.977386 148.451904,228.951233 
	C148.063416,222.839264 147.600113,216.779175 148.997498,210.391266 
	C153.248062,212.889114 157.548477,215.656845 163.517822,214.813980 
z"/>
<path fill="#9987EB" opacity="1.000000" stroke="none" 
	d="
M230.675720,214.429184 
	C234.452713,212.472321 237.911865,210.895126 241.703537,209.214050 
	C242.036041,209.110199 242.426071,209.407578 242.426071,209.407578 
	C242.426071,209.407578 242.854156,209.168304 242.957367,208.945740 
	C243.060577,208.723190 243.360519,208.406845 243.574600,208.373032 
	C243.858612,214.883789 243.928543,221.428360 243.996918,228.432159 
	C239.967834,228.930542 235.940292,228.969666 231.452698,228.946625 
	C227.860931,224.324280 228.355194,219.600586 230.675720,214.429184 
z"/>
<path fill="#A782E6" opacity="1.000000" stroke="none" 
	d="
M245.665314,251.170990 
	C256.937805,259.092896 262.399811,270.453705 263.683472,283.579224 
	C265.323364,300.347382 259.423950,314.489960 246.260712,325.703186 
	C243.748520,323.992737 244.207291,321.394470 244.081726,318.987457 
	C243.928848,316.057190 244.351944,313.037537 242.396790,310.032959 
	C241.901047,307.733582 242.679596,306.089386 243.532028,304.476685 
	C249.027771,294.079315 248.702744,283.604034 243.969345,273.068115 
	C243.295029,271.567169 242.466919,270.122620 242.424500,268.015015 
	C243.628860,264.922058 242.777283,262.082611 243.089066,259.327606 
	C243.402954,256.553894 243.391098,253.715805 245.665314,251.170990 
z"/>
<path fill="#54A6EA" opacity="1.000000" stroke="none" 
	d="
M177.280579,319.154846 
	C162.668869,303.687439 162.016388,277.808411 175.578156,259.123718 
	C180.222427,257.834839 180.271912,261.335236 180.711838,263.857635 
	C181.584000,268.858551 180.317596,273.934998 180.840286,278.980774 
	C180.924637,279.794983 180.944244,280.604797 181.371735,281.813049 
	C182.307922,286.220001 182.117477,290.207672 181.550598,294.648560 
	C179.474472,300.299255 181.689560,305.603119 181.037231,310.849518 
	C180.651917,313.948517 180.987198,317.247833 177.280579,319.154846 
z"/>
<path fill="#9987EB" opacity="1.000000" stroke="none" 
	d="
M242.568649,308.790955 
	C245.389587,310.160309 246.263184,312.147736 246.056305,314.951843 
	C245.812073,318.262238 245.988892,321.603668 245.972870,325.384888 
	C241.837036,329.633636 237.161469,332.478973 231.378983,334.057190 
	C227.770416,330.393372 229.453552,325.925751 228.979919,321.405945 
	C228.997040,319.599243 229.588135,318.367493 230.711563,317.671265 
	C234.858124,315.101624 238.055664,311.329865 242.568649,308.790955 
z"/>
<path fill="#7995EB" opacity="1.000000" stroke="none" 
	d="
M202.585480,209.284241 
	C207.294495,211.232651 211.596848,213.442764 216.717194,214.572723 
	C219.969254,219.086090 219.693192,223.574600 217.338623,228.513123 
	C212.298340,228.923996 207.607056,228.969849 202.453537,228.946594 
	C198.769226,222.402786 198.897751,215.960434 202.585480,209.284241 
z"/>
<path fill="#9987EB" opacity="1.000000" stroke="none" 
	d="
M245.845734,250.651260 
	C244.377762,256.409851 246.141190,262.308594 243.554657,267.845825 
	C237.418472,265.562439 233.330582,261.045990 229.024536,256.261749 
	C229.536011,251.457703 227.421738,246.547501 231.754608,242.807007 
	C237.438797,244.006531 241.551117,247.195786 245.845734,250.651260 
z"/>
<path fill="#5FA2EA" opacity="1.000000" stroke="none" 
	d="
M176.979034,319.412476 
	C179.279526,316.411224 178.879547,313.051788 179.028091,309.771881 
	C179.242935,305.027313 178.297272,300.231750 179.935867,295.243652 
	C181.177353,294.914551 181.949890,295.389557 182.250717,296.157684 
	C184.617340,302.200500 188.399094,307.498199 191.234833,313.730011 
	C190.897369,317.232483 191.254288,320.349396 190.896622,323.418274 
	C190.643967,325.585846 190.738525,328.199585 187.098694,328.309753 
	C182.631348,326.315338 180.132874,322.733765 176.979034,319.412476 
z"/>
<path fill="#6B9CEA" opacity="1.000000" stroke="none" 
	d="
M186.898041,328.419922 
	C189.064911,327.672333 188.954666,325.834106 189.013580,324.013275 
	C189.122559,320.645142 188.503922,317.212524 189.898819,313.541138 
	C195.842606,313.646088 199.481033,318.038879 204.044006,321.530426 
	C205.221542,326.368347 205.840897,330.803406 203.316376,335.424011 
	C197.082535,334.763336 191.935745,332.097015 186.898041,328.419922 
z"/>
<path fill="#6A9CEA" opacity="1.000000" stroke="none" 
	d="
M202.797028,208.757050 
	C201.470840,215.271240 202.133957,221.637497 201.993683,228.419556 
	C199.292038,228.924011 196.592804,228.970535 193.447540,228.952118 
	C193.001007,222.132462 193.022797,215.377609 192.987228,208.623077 
	C192.975662,206.425964 192.876266,204.257889 195.793839,203.098190 
	C198.300247,204.782303 200.450562,206.638199 202.797028,208.757050 
z"/>
<path fill="#8B90EA" opacity="1.000000" stroke="none" 
	d="
M231.900024,242.632355 
	C229.428284,246.946609 232.291367,251.890244 230.075470,256.460999 
	C225.298203,258.441223 221.281006,255.921982 216.724579,254.401245 
	C214.255661,249.637421 214.859711,244.979233 215.742386,239.976486 
	C221.481842,239.065765 226.569717,240.607956 231.900024,242.632355 
z"/>
<path fill="#7995EB" opacity="1.000000" stroke="none" 
	d="
M215.609161,239.507355 
	C217.761414,243.877960 216.727737,248.330261 216.988434,253.119720 
	C212.972122,257.510895 208.107864,256.316223 202.951645,255.512848 
	C200.205719,250.787857 200.267838,246.313446 202.657776,241.434540 
	C206.937988,239.604904 211.050186,239.365128 215.609161,239.507355 
z"/>
<path fill="#7995EB" opacity="1.000000" stroke="none" 
	d="
M203.380234,335.871460 
	C202.985825,331.199158 202.989349,326.666077 202.989838,321.682129 
	C207.871017,319.437897 212.479813,320.897736 217.417542,322.763306 
	C219.591537,327.483398 219.760178,331.852173 217.322128,336.560822 
	C212.540375,337.297455 208.112137,337.340485 203.380234,335.871460 
z"/>
<path fill="#898EEB" opacity="1.000000" stroke="none" 
	d="
M217.424454,336.968842 
	C216.991974,332.643616 216.992233,328.369232 216.989227,323.642395 
	C220.459442,319.851593 224.938187,319.831818 229.649231,319.700928 
	C231.912231,324.214569 230.624435,328.730988 231.001984,333.585663 
	C226.910217,336.323364 222.472656,337.065521 217.424454,336.968842 
z"/>
<path fill="#898EEB" opacity="1.000000" stroke="none" 
	d="
M217.451141,228.945557 
	C216.996506,224.496048 217.003403,220.113953 217.019882,215.243744 
	C221.425659,214.856491 225.839783,215.297913 230.579651,214.056946 
	C230.994629,218.690323 230.995712,223.331100 230.994705,228.428192 
	C226.632645,228.927307 222.272659,228.970123 217.451141,228.945557 
z"/>
<path fill="#6B9CEA" opacity="1.000000" stroke="none" 
	d="
M202.615356,241.058075 
	C203.008911,245.477356 203.024185,249.891251 203.060135,254.785858 
	C200.476471,259.644989 196.652878,261.898285 191.266907,261.564606 
	C189.450012,256.410400 189.703323,251.528824 190.738037,246.230499 
	C194.308319,243.332581 198.251877,242.143326 202.615356,241.058075 
z"/>
<path fill="#5FA2EA" opacity="1.000000" stroke="none" 
	d="
M180.589661,281.997498 
	C178.282913,276.687347 179.284180,271.123596 179.006561,265.653625 
	C178.883118,263.221252 179.353149,260.592560 176.230621,259.033081 
	C177.675323,255.026306 180.750000,252.305588 184.611786,249.899384 
	C188.429245,251.862717 187.735031,255.409760 187.982758,258.618500 
	C188.135468,260.596436 187.871536,262.570312 187.907410,264.957489 
	C188.135818,266.380310 188.132034,267.486084 187.511703,268.243378 
	C184.199066,272.287354 183.629807,277.612488 180.589661,281.997498 
z"/>
<path fill="#63A0EA" opacity="1.000000" stroke="none" 
	d="
M187.927368,266.180298 
	C185.490479,264.833923 186.091507,262.715576 186.011841,260.819733 
	C185.868454,257.406708 186.434433,253.932983 185.006836,250.200623 
	C186.366974,248.029404 188.337845,247.045807 190.592178,245.917145 
	C193.036621,250.707001 191.568130,255.838501 191.986572,261.283691 
	C191.897781,264.153259 190.483139,265.477539 187.927368,266.180298 
z"/>
<path fill="#A581E9" opacity="1.000000" stroke="none" 
	d="
M242.790894,208.784058 
	C242.810913,208.927811 242.561249,209.132431 242.173798,209.223618 
	C242.197769,209.021774 242.359482,208.933365 242.790894,208.784058 
z"/>
<path fill="#EDE3B1" opacity="1.000000" stroke="none" 
	d="
M187.369019,266.491882 
	C188.883377,264.867645 190.227463,263.555847 191.776947,261.988312 
	C195.340958,259.418884 198.771713,257.231781 202.827469,255.481735 
	C207.363113,254.288971 211.676529,253.574341 216.539093,253.639893 
	C221.236526,254.014938 225.347717,255.021255 229.643005,256.783752 
	C234.921463,259.588837 239.129791,263.169342 242.958405,267.735413 
	C251.226852,281.387329 252.205673,294.798126 243.095306,308.524109 
	C239.620697,313.357758 235.397461,316.837006 230.214417,319.697998 
	C226.118561,321.713989 222.052917,322.714355 217.400360,323.112457 
	C212.500992,323.085388 208.023193,322.928894 203.362946,321.298584 
	C198.350128,319.411163 194.236176,316.762268 190.268646,313.270111 
	C185.587601,307.937408 182.240982,302.190094 180.446045,295.233032 
	C180.224503,290.953979 180.205673,286.957214 180.189590,282.499756 
	C181.333664,276.411621 182.670822,270.874268 187.369019,266.491882 
z"/>
<path fill="#7198EB" opacity="1.000000" stroke="none" 
	d="
M194.243469,270.439758 
	C196.108337,264.275726 199.524628,262.710144 204.658737,265.212677 
	C205.998795,265.865845 207.261719,266.677277 208.794922,267.668884 
	C212.324890,272.628601 210.981674,277.651794 209.930450,283.067352 
	C209.577927,284.297821 209.480560,285.137054 209.250946,286.364349 
	C207.450989,288.816711 207.660843,291.068634 208.556244,293.792419 
	C208.922958,299.233856 210.110794,304.334015 207.240265,309.516602 
	C200.270554,314.385071 196.790512,313.541138 193.978500,306.364624 
	C195.113846,294.295837 194.256149,282.570435 194.243469,270.439758 
z"/>
<path fill="#8193EA" opacity="1.000000" stroke="none" 
	d="
M208.190353,284.135895 
	C209.305847,278.948700 208.976685,273.891754 209.021362,268.391022 
	C212.886124,270.070923 216.742493,272.220093 220.825409,274.618164 
	C221.758087,275.801453 222.643356,276.778290 222.658859,277.923859 
	C222.763428,285.649323 224.516617,293.465973 221.263336,301.460114 
	C218.876312,303.156128 216.758041,304.432434 214.312790,305.790710 
	C209.585983,302.348145 211.231308,297.595001 211.461884,292.764526 
	C213.952072,288.373413 210.571777,286.615845 208.190353,284.135895 
z"/>
<path fill="#8D8DEA" opacity="1.000000" stroke="none" 
	d="
M221.324417,301.786285 
	C221.003937,293.195129 221.013321,284.510468 221.037338,275.346436 
	C225.367493,277.255707 229.792221,279.469360 233.971008,282.077118 
	C239.232346,285.360443 239.290726,291.023834 234.053726,294.508331 
	C230.084412,297.149384 225.799026,299.315369 221.324417,301.786285 
z"/>
<path fill="#7995EB" opacity="1.000000" stroke="none" 
	d="
M212.664581,290.599731 
	C213.365509,295.550629 212.213364,300.398315 213.915741,305.472107 
	C211.872665,307.158478 209.759506,308.444275 207.319794,309.812073 
	C206.994934,304.576202 206.996643,299.258270 206.998138,293.473236 
	C207.146729,292.830383 207.295532,292.654694 207.687256,292.232422 
	C209.266968,291.048553 210.553360,289.970032 212.664581,290.599731 
z"/>
<path fill="#70A6FC" opacity="1.000000" stroke="none" 
	d="
M193.966797,270.482849 
	C195.238861,271.225159 195.024780,272.769073 194.988342,274.230286 
	C194.729706,284.605682 195.581696,294.997375 194.266754,305.678528 
	C193.962982,294.312378 193.926437,282.628418 193.966797,270.482849 
z"/>
<path fill="#E5DDB5" opacity="1.000000" stroke="none" 
	d="
M213.146881,290.570923 
	C211.563095,291.458984 210.174637,292.116913 208.468628,292.855652 
	C206.779694,291.415863 206.934753,289.633698 207.455017,287.405792 
	C207.721680,286.217377 207.807648,285.443024 207.929169,284.278931 
	C209.897018,284.812286 211.858337,285.679901 213.754913,286.671387 
	C216.668991,288.194794 215.168488,289.305450 213.146881,290.570923 
z"/>
<path fill="#8193EA" opacity="1.000000" stroke="none" 
	d="
M207.327652,287.113434 
	C207.760422,288.693024 207.885162,290.394348 208.080505,292.516083 
	C207.959076,292.950592 207.767044,292.964722 207.286469,292.992493 
	C206.217728,291.079498 205.065918,289.151489 207.327652,287.113434 
z"/>
</svg>